/* XPM */
static char *_e8f097f4d2a433e98660d8e177c881c[] = {
/* columns rows colors chars-per-pixel */
"16 16 120 2 ",
"   c #221F2A",
".  c #26222A",
"X  c #2D272A",
"o  c #785F1D",
"O  c #7D621D",
"+  c #000356",
"@  c #00115D",
"#  c #1B2E71",
"$  c #122A7A",
"%  c #122C78",
"&  c #1D3173",
"*  c #15337D",
"=  c #203173",
"-  c #233173",
";  c #2B3677",
":  c #81651B",
">  c #83661B",
",  c #82651C",
"<  c #8C6C19",
"1  c #8E6D1B",
"2  c #93711A",
"3  c #CE9607",
"4  c #CB9408",
"5  c #D19506",
"6  c #D49705",
"7  c #DC9B03",
"8  c #DB9D01",
"9  c #DA9C02",
"0  c #D99A05",
"q  c #D49C08",
"w  c #D99B0B",
"e  c #D9A006",
"r  c #E1A604",
"t  c #EBA300",
"y  c #ECA300",
"u  c #EAA707",
"i  c #E6A902",
"p  c #E1A109",
"a  c #E3A209",
"s  c #F0A300",
"d  c #F1A300",
"f  c #F7A700",
"g  c #F8A700",
"h  c #F8AA00",
"j  c #F9AA00",
"k  c #EBB02D",
"l  c #ECB12C",
"z  c #E5AD30",
"x  c #EBB337",
"c  c #F6BF3E",
"v  c #FFC400",
"b  c #FFC600",
"n  c #FFC700",
"m  c #FFC604",
"M  c #FFC800",
"N  c #FFC900",
"B  c #FFCA00",
"V  c #FFCB00",
"C  c #FFCC00",
"Z  c #FFCD00",
"A  c #FFCD05",
"S  c #FFC108",
"D  c #FFC00B",
"F  c #FFC508",
"G  c #FFC40A",
"H  c #FFC60F",
"J  c #FFC80D",
"K  c #FFC435",
"L  c #FFCA38",
"P  c #DDB048",
"I  c #E0B54D",
"U  c #E4BA58",
"Y  c #FEC642",
"T  c #F5C24C",
"R  c #EFC65F",
"E  c #F7C753",
"W  c #F3C457",
"Q  c #E8C062",
"!  c #002B8E",
"~  c #173682",
"^  c #1D3E80",
"/  c #244383",
"(  c #364480",
")  c #3F5894",
"_  c #314AA5",
"`  c #3A54B0",
"'  c #6278C1",
"]  c #7287AF",
"[  c #7488B0",
"{  c #7D93C8",
"}  c #7495DE",
"|  c #7A97D8",
" . c #7295E5",
".. c #899AC6",
"X. c #98A3C2",
"o. c #8FA2D3",
"O. c #98A8D0",
"+. c #AAB3CD",
"@. c #BBBFD4",
"#. c #879FE0",
"$. c #BEC6D1",
"%. c #B9C3DC",
"&. c #BECDEF",
"*. c #A7C4FF",
"=. c #BDCCF1",
"-. c #BFCEF1",
";. c #B8D2FF",
":. c #C2C7C7",
">. c #C8C7C6",
",. c #C8C9CD",
"<. c #C6CCDD",
"1. c #D2D3D3",
"2. c #D0D2D8",
"3. c #E0DEDB",
"4. c #D7DCE2",
"5. c #C6D3F4",
"6. c #DBE7FF",
"7. c #F3FCFF",
"8. c gray100",
"9. c None",
/* pixels */
"9.9.9.9.9.9.9.9.9.9.9.9.9.9.9.9.",
"9.9.9.9.9.9.9.9.9.9.9.9.9.9.9.9.",
"9.9.9.9.9.O 4 t y 3 , 9.9.9.9.9.",
"9.9.9.9.q b A L K m V 9 . 9.9.9.",
"9.9.9.w V E :...O.1.I V p 9.9.9.",
"9.9.o V T } ` ~ $ #.;.P Z , 9.9.",
"9.9.5 F >.=.= / @.@ | 3.S 0 9.9.",
"9.9.s l &.8.[ ; X.+ %.7.z f 9.9.",
"9.9.s k -.8.] - +.( ) 6.x g 9.9.",
"9.9.6 F ,.5.# ^ <.& ! 2.H 7 9.9.",
"9.9.> V W  ._ * $ ' *.U Z < 9.9.",
"9.9.9.a V Q $.{ o.4.Q b u 9.9.9.",
"9.9.9.. r V J Y c D Z i X 9.9.9.",
"9.9.9.9.9.< 8 j j 8 2 9.9.9.9.9.",
"9.9.9.9.9.9.9.9.9.9.9.9.9.9.9.9.",
"9.9.9.9.9.9.9.9.9.9.9.9.9.9.9.9."
};
