/* XPM */
static char *_3bcb3e5d38f4a34da5cf5d0df20d1c7[] = {
/* columns rows colors chars-per-pixel */
"32 32 194 2 ",
"   c #3A341D",
".  c #030F2E",
"X  c #07132D",
"o  c #141E2B",
"O  c #040F33",
"+  c #00013D",
"@  c #0B1434",
"#  c #242727",
"$  c #292726",
"%  c #282827",
"&  c #23272B",
"*  c #2D2D2A",
"=  c #3B3524",
"-  c #3F3824",
";  c #473D19",
":  c #423B23",
">  c #493F21",
",  c #4E4016",
"<  c #5D4911",
"1  c #614D18",
"2  c #695215",
"3  c #000044",
"4  c #00004B",
"5  c #000154",
"6  c #00075B",
"7  c #000A5C",
"8  c #000F60",
"9  c #001462",
"0  c #091665",
"q  c #001866",
"w  c #021F6A",
"e  c #101D68",
"r  c #03236D",
"t  c #08246D",
"y  c #002670",
"u  c #0C2771",
"i  c #0E2B74",
"p  c #142F71",
"a  c #1E3C7D",
"s  c #27417D",
"d  c #835A00",
"f  c #885D00",
"g  c #936400",
"h  c #956C05",
"j  c #9E6E00",
"k  c #A27100",
"l  c #A87500",
"z  c #AF7A00",
"x  c #B17D00",
"c  c #B58100",
"v  c #BE8600",
"b  c #C48500",
"n  c #C38A00",
"m  c #C98D00",
"M  c #D39100",
"N  c #DA9500",
"B  c #DD9C00",
"V  c #E79600",
"C  c #E99600",
"Z  c #E49D00",
"A  c #EA9B00",
"S  c #E4A100",
"D  c #E9A403",
"F  c #E9A709",
"G  c #EEA90A",
"H  c #F2A100",
"J  c #F4AA00",
"K  c #F9AF00",
"L  c #F2AD0A",
"P  c #FFB500",
"I  c #FFBB00",
"U  c #F6B00A",
"Y  c #FCB40A",
"T  c #FFBC0A",
"R  c #FFBD15",
"E  c #FFC502",
"W  c #FFCA04",
"Q  c #FFC40B",
"!  c #FFC90A",
"~  c #FFD306",
"^  c #FFD208",
"/  c #FFC41D",
"(  c #FFC221",
")  c #FFCB2A",
"_  c #FFCB32",
"`  c #FFD23D",
"'  c #FFD74D",
"]  c #FFD84A",
"[  c #FFDB55",
"{  c #FFDD5C",
"}  c #FFE154",
"|  c #FFDF66",
" . c #FFDD6D",
".. c #FED77C",
"X. c #FFD87C",
"o. c #FFE465",
"O. c #FFE56C",
"+. c #FFE374",
"@. c #FFED73",
"#. c #FFE37C",
"$. c #304A87",
"%. c #3B4886",
"&. c #344E8A",
"*. c #3D4F8A",
"=. c #3A538D",
"-. c #3C5690",
";. c #45518B",
":. c #4A538C",
">. c #425992",
",. c #595A91",
"<. c #4C6196",
"1. c #4F6699",
"2. c #566B9C",
"3. c #4160AD",
"4. c #5E72A2",
"5. c #4A6BBE",
"6. c #6679A6",
"7. c #5474C4",
"8. c #607DC5",
"9. c #7788B0",
"0. c #7D8DB3",
"q. c #6883C7",
"w. c #6883C9",
"e. c #6D8FDA",
"r. c #7C92D7",
"t. c #7192DB",
"y. c #6E8FE3",
"u. c #7092E4",
"i. c #7999EA",
"p. c #9DA2B8",
"a. c #A2A9BF",
"s. c #B3B2B3",
"d. c #B1B2BC",
"f. c #DFCB9E",
"g. c #FBD684",
"h. c #F7D68B",
"j. c #E8D09A",
"k. c #EFDD99",
"l. c #F1DD96",
"z. c #FFE384",
"x. c #FAE18A",
"c. c #E4D5A2",
"v. c #8694CD",
"b. c #8897CF",
"n. c #879CD3",
"m. c #96A1C1",
"M. c #9EA8C6",
"N. c #8FA5D6",
"B. c #8EA6DE",
"V. c #9BA8D6",
"C. c #93A3D9",
"Z. c #93A8DB",
"A. c #9AAEDD",
"S. c #9FB2DE",
"D. c #A1AAC1",
"F. c #A8AEC1",
"G. c #A0A7CE",
"H. c #A9B2CF",
"J. c #A8AFD2",
"K. c #B2BDD4",
"L. c #8DA1E0",
"P. c #8FA9E7",
"I. c #8CAAED",
"U. c #90A9E3",
"Y. c #9DB4E1",
"T. c #85AAF6",
"R. c #93B2F5",
"E. c #98B8F3",
"W. c #A6BCE4",
"Q. c #B7C4D7",
"!. c #B8C2D6",
"~. c #B7C1D9",
"^. c #B9C8DE",
"/. c #B1C0E3",
"(. c #BDCEEB",
"). c #AEC9F5",
"_. c #C1C7D6",
"`. c #C4CCDE",
"'. c #CED5DB",
"]. c #C1D0E5",
"[. c #CCD4E2",
"{. c #C3D0EF",
"}. c #D1D7E5",
"|. c #D4DAE5",
" X c #D6DCE9",
".X c #D8DEEA",
"XX c #D8E1E0",
"oX c #E4E7EF",
"OX c #ECEEF5",
"+X c #EDF0F6",
"@X c #F2F3F7",
"#X c #F5F7FA",
"$X c #FFFFFF",
"%X c None",
/* pixels */
"%X%X%X%X%X%X%X%X%X%X%X%X%X%X%X%X%X%X%X%X%X%X%X%X%X%X%X%X%X%X%X%X",
"%X%X%X%X%X%X%X%X%X%X%X%X%X%X%X%X%X%X%X%X%X%X%X%X%X%X%X%X%X%X%X%X",
"%X%X%X%X%X%X%X%X%X%X%X%X%X%X%X%X%X%X%X%X%X%X%X%X%X%X%X%X%X%X%X%X",
"%X%X%X%X%X%X%X%X%X%X%X%X%X%X%X& & %X%X%X%X%X%X%X%X%X%X%X%X%X%X%X",
"%X%X%X%X%X%X%X%X%X3 %X: h n S J J S m h > %X3 %X%X%X%X%X%X%X%X%X",
"%X%X%X%X%X%X%X%X4 %Xv I ! T Y U U Y T ! E m %X4 %X%X%X%X%X%X%X%X",
"%X%X%X%X%X%X%X3 %XI Q L F D A A V D D G G ! I %X+ %X%X%X%X%X%X%X",
"%X%X%X%X%X%X3 g ^ Y F S A T [ | O.} R C D F U ~ k + %X%X%X%X%X%X",
"%X%X%X%X%X4 %X~ L F V / g.s.J.C.C.G.s.h.( V F L ~ d 4 %X%X%X%X%X",
"%X%X%X%X%X%XI Y F V ] '.I.n.5 H.&.i A.t.Q.{ A F U E %X3 %X%X%X%X",
"%X%X%X%X%Xb ! F V ] ).7. X$X8  X2.-.$X#X8.E.{ C F Q N %X%X%X%X%X",
"%X%X%X%X  E G D R XX5.p e a y 9 5 6 %.m.$Xw.^.) A G W , %X%X%X%X",
"%X%X%X%Xh ! F C x.i.|.m.;.5 9 =.4.&.4 + 0.$Xy.k.H F ! l %X%X%X%X",
"%X%X%X%Xm T D R d.n.$X$X$Xr 4 |.$X$X1.+ t $XS.D./ D Y B . %X%X%X",
"%X%X%Xo D Y A [ Z.K.$X$X+Xr 4 [.$X#X*.3 6.$X`.B.| A U J # %X%X%X",
"%X%X%X$ J U C  .P.[.$X$XOXt 8 i i 6 4 0 ^.$X XP...C G P = %X%X%X",
"%X%X%X$ K U A  .U.[.$X$XOXu 7 $.>.=.r 7 0 `.$XP.X.A G P = %X%X%X",
"%X%X%Xo D U V { Z.~.$X$XOXr 4 |.$X$XoXt + 4.+XU. .A U J $ %X%X%X",
"%X%X%X%XM T D / F.N.$X$X$Xr 4  X$X$X@Xt + 9.{.M.) D Y Z X %X%X%X",
"%X%X%X%Xj ! F A l.u.#XK.,.8 8 1.9.4.9 3 6 _.R.c.H F ! z %X%X%X%X",
"%X%X%X%X; E G A ) ].q.s 4 r r 5 4 5 q :.[.n.W.` V G W < %X%X%X%X",
"%X%X%X%X%XM Q F C o.R.3.|.#X8 Q.<.&.$X$Xn.T.+.C F Q A . %X%X%X%X",
"%X%X%X%X%X%XE L F A O.(.R.V.4 _.>.u /.t.S.#.A F L W %X3 %X%X%X%X",
"%X%X%X%X%X4 f ^ G D C _ j.p.b.B.r.v.D.f.` A D G ^ j 3 %X%X%X%X%X",
"%X%X%X%X%X%X%Xz ^ L F V H ) @.X.z.@._ H V F L ^ v %X+ %X%X%X%X%X",
"%X%X%X%X%X%X+ %X%XW Q G F D A A A A A F F Q W k %X3 %X%X%X%X%X%X",
"%X%X%X%X%X%X%X+ 3 %XB E ! Y L G G L Y ! W D %X3 3 %X%X%X%X%X%X%X",
"%X%X%X%X%X%X%X%X%X4 O 1 z Z K I I K S c 2 @ 3 %X%X%X%X%X%X%X%X%X",
"%X%X%X%X%X%X%X%X%X%X%X%X%X%X* - - * %X%X%X%X%X%X%X%X%X%X%X%X%X%X",
"%X%X%X%X%X%X%X%X%X%X%X%X%X%X%X%X%X%X%X%X%X%X%X%X%X%X%X%X%X%X%X%X",
"%X%X%X%X%X%X%X%X%X%X%X%X%X%X%X%X%X%X%X%X%X%X%X%X%X%X%X%X%X%X%X%X",
"%X%X%X%X%X%X%X%X%X%X%X%X%X%X%X%X%X%X%X%X%X%X%X%X%X%X%X%X%X%X%X%X"
};
