/* XPM */
static char *graphic[] = {
/* width height num_colors chars_per_pixel */
"32 32 439 2", 
/* colors */
"   c None",
".  c #FBCE00",
"X  c #F4A603",
"o  c #EF9100",
"O  c #253F7D",
"+  c #F6BB00",
"@  c #F4B400",
"#  c #0A276D",
"$  c None",
"%  c #526798",
"&  c #FAEEC5",
"*  c #F6BD47",
"=  c #6477A3",
"-  c #F5B500",
";  c #F7BD00",
":  c #FBCE01",
">  c #F7B400",
",  c #F6BB00",
"<  c #F8CA00",
"1  c #9AA5C2",
"2  c #F7B81B",
"3  c #EF9000",
"4  c #F8C700",
"5  c None",
"6  c #F9C000",
"7  c None",
"8  c #FAC600",
"9  c #FAD35D",
"0  c #D9DDE8",
"q  c #FBCC00",
"w  c #EF8F00",
"e  c #EC8800",
"r  c #F8C500",
"t  c #08246B",
"y  c #F09500",
"u  c #D0D5E3",
"i  c #F0991B",
"p  c #EE9400",
"a  c #FAD038",
"s  c #F8BA01",
"d  c #FDFDFE",
"f  c #C5CCDC",
"g  c #F6B637",
"h  c #475C91",
"j  c None",
"k  c #F9C001",
"l  c #8F9CBC",
"z  c #2C4481",
"x  c #FDE373",
"c  c #7484AC",
"v  c #596C9C",
"b  c #06236A",
"n  c #4E6395",
"m  c #FBCC01",
"M  c #EF8F01",
"N  c #334B85",
"B  c #7B8BB0",
"V  c #B3BCD2",
"C  c #CACEDB",
"Z  c #F4B65A",
"A  c #FBCB00",
"S  c #ED8E00",
"D  c None",
"F  c #7283AB",
"G  c #F4A300",
"H  c #F2A101",
"J  c #FAD100",
"K  c #576B9B",
"L  c #E5E5DF",
"P  c #FBCA00",
"I  c #042269",
"U  c #9FABC6",
"Y  c #3C538B",
"T  c #F7E3C3",
"R  c #FCD000",
"E  c #FCDD5D",
"W  c None",
"Q  c None",
"!  c None",
"~  c #F9C900",
"^  c #F9C838",
"/  c #F19900",
"(  c #FACF00",
")  c #FBCE04",
"_  c #0D2A6F",
"`  c #F4A500",
"'  c #F5B100",
"]  c #F3A91B",
"[  c #F9CB47",
"{  c #F9F9FB",
"}  c #8B98B9",
"|  c #EF8F03",
" . c #F6C071",
".. c #B8C0D4",
"X. c None",
"o. c #FACF00",
"O. c #EE9200",
"+. c #AFB8CF",
"@. c #5C6F9D",
"#. c #F7F8FA",
"$. c #DCE0EA",
"%. c #41578D",
"&. c #8997B8",
"*. c #C1C8DA",
"=. c None",
"-. c #F19700",
";. c #263F7D",
":. c #F5AB00",
">. c #0B276D",
",. c #F29D00",
"<. c #B6BFD3",
"1. c None",
"2. c #F3A300",
"3. c #F3A100",
"4. c #F8C347",
"5. c #929FBE",
"6. c #2F4783",
"7. c #F5F7F9",
"8. c None",
"9. c #142F73",
"0. c #F5AF00",
"q. c None",
"w. c None",
"e. c #ED8D00",
"r. c #09266C",
"t. c #F8E7C4",
"y. c #CBD0DB",
"u. c None",
"i. c #364E87",
"p. c #F0EDDD",
"a. c #F7C471",
"s. c #FACD00",
"d. c #6376A2",
"f. c #122E72",
"g. c #F9D071",
"h. c None",
"j. c #F5AF01",
"k. c None",
"l. c #F09612",
"z. c #F0EBDC",
"x. c #CBD0DC",
"c. c #F19C12",
"v. c #F3A100",
"b. c #F8BB13",
"n. c #FCD638",
"m. c #FCDB48",
"M. c #909CBC",
"N. c #F5B85B",
"B. c #F4A700",
"V. c #F5AD00",
"C. c #F3AE46",
"Z. c #EAECF2",
"A. c #ED8B00",
"S. c #CFD4E2",
"D. c None",
"F. c #EC8B00",
"G. c #FBC500",
"H. c #F7B900",
"J. c #FCFCFD",
"K. c #FBCD00",
"L. c #2B4380",
"P. c #F1F3F6",
"I. c None",
"U. c None",
"Y. c #D6DBE6",
"T. c #7383AB",
"R. c #E6E5DF",
"E. c #F3F4F8",
"W. c #EE8800",
"Q. c #F3A200",
"!. c #4D6294",
"~. c #F8E3C3",
"^. c #F09A00",
"/. c None",
"(. c #CDD3E1",
"). c #F4A800",
"_. c #FAFBFC",
"`. c #F6B301",
"'. c #F0E9DC",
"]. c #445A8F",
"[. c #8C9ABA",
"{. c None",
"}. c #29427F",
"|. c #F9EBC5",
" X c #7182AA",
".X c #F1F3F7",
"XX c #F6BC5B",
"oX c #E6E5E0",
"OX c #F5AB00",
"+X c #F7C25B",
"@X c #F8C000",
"#X c #687AA5",
"$X c #ED8900",
"%X c #FBCB13",
"&X c #F6B100",
"*X c #4D6295",
"=X c #FAD472",
"-X c #F9E9C4",
";X c #F6B51B",
":X c #173275",
">X c #F7B700",
",X c #F9CE5B",
"<X c None",
"1X c #F8CD00",
"2X c #F8BD00",
"3X c #EF9300",
"4X c #F9C300",
"5X c #E6E3DF",
"6X c #FAC900",
"7X c #032169",
"8X c #EE8C00",
"9X c #F3A737",
"0X c #FBCF00",
"qX c #EF9200",
"wX c #153174",
"eX c #F4AD37",
"rX c #F0E7DC",
"tX c #9CA7C3",
"yX c #FAEFC5",
"uX c #EE8A00",
"iX c #FCE073",
"pX c #E6E8F0",
"aX c None",
"sX c #FAC901",
"dX c #EE8C01",
"fX c None",
"gX c #EC8700",
"hX c #F7B500",
"jX c #EDEFF4",
"kX c #8A97B9",
"lX c #EE8E03",
"zX c #FBD31C",
"xX c #F6B304",
"cX c #FFFFFF",
"vX c #F9C100",
"bX c #E4E7EF",
"nX c None",
"mX c #EE8A00",
"MX c #F4AE00",
"NX c #FBCD00",
"BX c #5B6E9D",
"VX c #F6F7FA",
"CX c #EF9000",
"ZX c #08256B",
"AX c None",
"SX c #F09600",
"DX c #F2A200",
"FX c None",
"GX c #F6B000",
"HX c #D0D6E3",
"JX c #F3A800",
"KX c #CCD0DC",
"LX c #9AA6C3",
"PX c #FDFEFE",
"IX c #6275A1",
"UX c #EE8800",
"YX c #E2E6EE",
"TX c #475D91",
"RX c #2C4581",
"EX c None",
"WX c None",
"QX c #112D71",
"!X c #596D9C",
"~X c #FCDE5C",
"^X c #FAD200",
"/X c #F7C000",
"(X c #CACFDB",
")X c #F5AB04",
"_X c #EC8900",
"`X c #F6C371",
"'X c #F19C01",
"]X c #EC8900",
"[X c #FAC500",
"{X c #F9C31B",
"}X c #F7B704",
"|X c None",
" o c #FAD200",
".o c #F19B00",
"Xo c #F4AC00",
"oo c #FBCB00",
"Oo c #FBD85D",
"+o c #EF8E00",
"@o c None",
"#o c #FCD100",
"$o c #F09400",
"%o c None",
"&o c None",
"*o c #EF9500",
"=o c #F19A00",
"-o c #CACFDC",
";o c #FCDC73",
":o c #F2F3F7",
">o c #9FAAC5",
",o c #F8C647",
"<o c #8492B5",
"1o c #F5AC12",
"2o c #4E6295",
"3o c None",
"4o c #FBCF1C",
"5o c #C8CEDB",
"6o c #F19C1A",
"7o c #C3CADB",
"8o c #F29E00",
"9o c None",
"0o c None",
"qo c #D5DAE6",
"wo c #7282AB",
"eo c #F7C771",
"ro c #FBD200",
"to c #E5E4DF",
"yo c #042169",
"uo c #F09B00",
"io c #F7E2C3",
"po c #F09200",
"ao c #163174",
"so c #F9FAFC",
"do c #F19800",
"fo c #EE9100",
"go c #FBD000",
"ho c #43598F",
"jo c #8B99BA",
"ko c #F29E00",
"lo c #28417F",
"zo c #7081AA",
"xo c #385088",
"co c #F6B900",
"vo c #FACE00",
"bo c #143073",
"no c #F7BD00",
"mo c #F09201",
"Mo c #FBD013",
"No c None",
"Bo c #F7B600",
"Vo c #ED8C00",
"Co c #F19900",
"Zo c #0B286E",
"Ao c None",
"So c None",
"Do c None",
"Fo c None",
"Go c #EE9100",
"Ho c None",
"Jo c #FCDA5D",
"Ko c #F09D00",
"Lo c #B6BED3",
"Po c #F29C00",
"Io c #FBD138",
"Uo c #FEFEFE",
"Yo c #F6B000",
"To c #E3E6EE",
"Ro c #F3A200",
"Eo c #7585AC",
"Wo c #5A6D9C",
"Qo c #DADEE9",
"!o c #F8C300",
"~o c #BFC6D9",
"^o c #F8E6C4",
"/o c #516597",
"(o c #CBCFDB",
")o c #FAD100",
"_o c #F9ECC4",
"`o c #99A5C2",
"'o c #FCFDFD",
"]o c #F19700",
"[o c #E1E5ED",
"{o c None",
"}o c #C6CDDD",
"|o c #F7B800",
" O c #FEFEFF",
".O c None",
"XO c #F8C971",
"oO c #586C9B",
"OO c #F4A801",
"+O c #7585AD",
"@O c #5A6D9D",
"#O c #F8E4C3",
"$O c #EF8F00",
"%O c None",
"&O c #FBCC00",
"*O c #07246B",
"=O c #F5AE01",
"-O c #F0EADC",
";O c #193476",
":O c #F2A700",
">O c #FCDA48",
",O c #EC8600",
"<O c #F2A112",
"1O c None",
"2O c #F4A600",
"3O c #F6BD5B",
"4O c #FAC613",
"5O c #F3AD46",
"6O c #C9CEDB",
"7O c #F7B800",
"8O c #F9EAC4",
"9O c #FBDB72",
"0O c #F8BE00",
"qO c #D6DAE6",
"wO c #FBD300",
"eO c None",
"rO c None",
"tO c #FACA00",
"yO c #EE8D00",
"uO c None",
"iO c None",
"pO c #FAFAFC",
"aO c #F4AE37",
"sO c #44598F",
"dO c None",
"fO c None",
"gO c #D4D9E5",
"hO c #FBDB73",
"jO c #7181AA",
"kO c #FAF0C5",
"lO c #B9C1D5",
"zO c #FCE173",
"xO c #F4B100",
"cO c #6678A3",
"vO c #E6E9F0",
"bO c #ED8800",
"nO c #F6B000",
"mO c #B0B9D0",
"MO c #EE8D01",
"NO c None",
"BO c #5D709E",
"VO c #F8C75B",
"CO c None",
"ZO c #F9E8C4",
"AO c #8A98B9",
"SO c #F8BC00",
"DO c #B7C0D4",
"FO c #F9C200",
"GO c #FBD100",
"HO c #395089",
"JO c #E6E2DF",
"KO c #FBCF00",
"LO c #F8C300",
"PO c #FAC800",
"IO c #EE8B00",
/* pixels */
"                                                                ",
"                              @o@o                              ",
"                    @oAX/.FXKO1X< A HoAo%O@o                    ",
"                D.So&ogo( o.. q P 6X4 r LODoaXCO                ",
"              FofOro oR . NXootOPO8 [X4XFO/X; 5 1.              ",
"            q.wO^X#o0X: Mon.E zOiXJoa 4Ok 0OSO+ coiO            ",
"          q.)oJ R : zXx kOoX5oLoLo6OR.& 9O{Xs 7O- @ .O          ",
"        FoGOJ 0X) m.kO(Xzoh n @.@.n h  Xy._o[ }X> xOGX$         ",
"      D.FXvo. ) ~Xp.&.].[.qo:o_.pO:oqojosOAOz.,XxXnOMXNO@o      ",
"      SoK.. m >Op.woBXY.d #.5.lO+.`opOd qo@OT.z.,oj.V.:.W       ",
"    @oh.s.oo4okO&.BXYXqO(.*.RXcOK xo$.'ocXvOWoAO-X;XOXJXj @o    ",
"    7 &OP sXzO(X].Y.#.cOf.QXyor.ZXb L.LXsocXqosOx.g.OO2O` EX    ",
"    X.~ PO%XyXzo[.d cX(.v I !.B B +O6.:Xf cXd } woZO1o2.3.=.    ",
"    Q 4 [XIoL h qocXcXcXV r.>ocXcXUomO# l cXcXgOTX5Xg v.Ko{.    ",
"    G.[X4XOo5on :ocXcXcXV r.M.vOvOTo<or.U cXcX.X2o(X+Xko,..o    ",
"  @o!oFOvX;oLo@._.cXcXcXV *O;O}.}.O # wX}ocXcXpOBXDOXOPo=oCo@o  ",
"  @o@X6 0OhOLo@._.cXcXcXV t RXh h h HOZooOE.cXpOBX..eo=odo]o@o  ",
"    no2XSO9 5on :ocXcXcXV r.1 VXVXVXjXBOaoHXcX.X2o-o3O-.SX3X    ",
"    5 , H.^ toh qocXcXPXmOr.tXpOpOpO:oIXboS.cXgOTX5XeXy O.k.    ",
"    8.|o>Xb.|.jOjod  O<.Y 7XN % % % ]._ /oP.d AOT.#Oc.qXfoeO    ",
"    I.BohX`.=X(o].qo7.#Xlo;.r.9.QX>.z d.QocXgOhoKX`XmoCX$O0o    ",
"    @ow.' &X2 8OAOWobXZ.vO0 i.Eo= %.[o{ cXpX!XjoT 6ow S D @o    ",
"      WXYo0.=O4.-OT.Woqod _.~oqOu 7oJ.d gO!Xc rXC.M yOF.fX      ",
"      CO3oXoOX)XVO'.AOho} gO.XpOpO.XgOkXhojorXZ | 8XuXnX@o      ",
"        $ ).:OB.X * t.x.woTX2oBXBX*XTXF KXio5OlXIO_X$X<X        ",
"          NoG DXRoH ] XO^o5XC ....-oJO~. .i dXmX_X,OdO          ",
"            NoQ.8oko,.'X<OaOXXa.`XN.9Xl.MOIOmXUXbOdO            ",
"              U.1Ouo^./ -.y $opoo w yO8XmX_XgX|X<X              ",
"                @orO! *op Goo CX+oyO]Xe W.{o9o@o                ",
"                    @o%oeOuO3 e.A.VonXu.0o@o                    ",
"                              @o@o                              ",
"                                                                "
};
