/* XPM */
static char *_9a6b5a6d61d4e1de3bb4713ee56e616[] = {
/* columns rows colors chars-per-pixel */
"64 64 256 2 ",
"   c #000D2B",
".  c #000F32",
"X  c #00003B",
"o  c #000E3C",
"O  c #001035",
"+  c #00123B",
"@  c #6D4B01",
"#  c #775300",
"$  c #7D5A00",
"%  c #000045",
"&  c #000C45",
"*  c #00014C",
"=  c #000B4D",
"-  c #001444",
";  c #00174B",
":  c #000154",
">  c #000C55",
",  c #000559",
"<  c #000B5C",
"1  c #001456",
"2  c #001954",
"3  c #00145C",
"4  c #001C5C",
"5  c #000F60",
"6  c #001563",
"7  c #001B65",
"8  c #0B1A61",
"9  c #001D6A",
"0  c #111D60",
"q  c #002067",
"w  c #0F2066",
"e  c #00216C",
"r  c #0A266E",
"t  c #10256E",
"y  c #1D2869",
"u  c #002373",
"i  c #082770",
"p  c #0D2A72",
"a  c #00257B",
"s  c #00287F",
"d  c #042972",
"f  c #122D74",
"g  c #1B2B72",
"h  c #143176",
"j  c #1B357A",
"k  c #1E3A7C",
"l  c #223277",
"z  c #2C3976",
"x  c #2A3779",
"c  c #243C7E",
"v  c #2C3D7E",
"b  c #273776",
"n  c #303C79",
"m  c #845C02",
"M  c #895E03",
"N  c #8C6401",
"B  c #8F6802",
"V  c #906500",
"C  c #956A01",
"Z  c #9D6E00",
"A  c #A37503",
"S  c #A77A06",
"D  c #AD7B04",
"F  c #AA7603",
"G  c #B27E04",
"H  c #B48205",
"J  c #BA8405",
"K  c #BF8A06",
"L  c #C38B05",
"P  c #C49108",
"I  c #CC9608",
"U  c #CB9005",
"Y  c #D29607",
"T  c #D69907",
"R  c #D19408",
"E  c #D79E08",
"W  c #DA9F08",
"Q  c #E79600",
"!  c #E79800",
"~  c #E89B00",
"^  c #DDA109",
"/  c #EAA301",
"(  c #EBA806",
")  c #E2A208",
"_  c #E9A609",
"`  c #E6A909",
"'  c #EBA809",
"]  c #F3AD09",
"[  c #F6B109",
"{  c #FCB40A",
"}  c #FFBC0A",
"|  c #ECAC14",
" . c #EDAD1C",
".. c #EBA713",
"X. c #EEB11E",
"o. c #EDAD22",
"O. c #EFB52D",
"+. c #EFB324",
"@. c #F0B323",
"#. c #EEB535",
"$. c #EFB83B",
"%. c #F0B834",
"&. c #F0BA3A",
"*. c #FFC40B",
"=. c #FFCC0B",
"-. c #FFD10C",
";. c #F0BC42",
":. c #F1BE50",
">. c #F3C14C",
",. c #F5C659",
"<. c #F6CC5F",
"1. c #F5C556",
"2. c #F4C760",
"3. c #F8CD67",
"4. c #F5CE68",
"5. c #F8CE68",
"6. c #F5CD65",
"7. c #F5CF7A",
"8. c #F8D170",
"9. c #FAD37C",
"0. c #002782",
"q. c #002883",
"w. c #002A8A",
"e. c #002C91",
"r. c #294483",
"t. c #2F4986",
"y. c #2E498A",
"u. c #354482",
"i. c #314987",
"p. c #3C4885",
"a. c #334D8A",
"s. c #3A4E89",
"d. c #36528D",
"f. c #3B548E",
"g. c #365294",
"h. c #3B5591",
"j. c #385498",
"k. c #3E5B9E",
"l. c #414180",
"z. c #475083",
"x. c #40558E",
"c. c #49558B",
"v. c #475590",
"b. c #435C93",
"n. c #495E96",
"m. c #515B90",
"M. c #515D98",
"N. c #4C639A",
"B. c #4B6297",
"V. c #546196",
"C. c #52679C",
"Z. c #546A9C",
"A. c #596D9E",
"S. c #425EA1",
"D. c #4B65A3",
"F. c #546BA8",
"G. c #5D71A1",
"H. c #5E79B9",
"J. c #6375A4",
"K. c #6871A3",
"L. c #6579A6",
"P. c #6B7DAA",
"I. c #6371A9",
"U. c #7076A4",
"Y. c #7178A5",
"T. c #6E80AB",
"R. c #7385AE",
"E. c #7B85AE",
"W. c #6E83B5",
"Q. c #7788B2",
"!. c #7C8CB3",
"~. c #7D8CBF",
"^. c #7785B4",
"/. c #7F90B6",
"(. c #7486C0",
"). c #748CC8",
"_. c #838BAE",
"`. c #838DB3",
"'. c #888FB6",
"]. c #8291B6",
"[. c #8594B8",
"{. c #8C9BBD",
"}. c #939EBF",
"|. c #F6D581",
" X c #FAD683",
".X c #FEDA87",
"XX c #FCDF8E",
"oX c #FADE9B",
"OX c #FEE295",
"+X c #FFE49C",
"@X c #FCE2A2",
"#X c #FFEAA1",
"$X c #FAE4A8",
"%X c #FEECBB",
"&X c #FFF4B9",
"*X c #859BCC",
"=X c #929CC3",
"-X c #8FA1C2",
";X c #93A3C3",
":X c #9AA4C2",
">X c #9EAAC7",
",X c #97A8CC",
"<X c #89A0D8",
"1X c #99ACD4",
"2X c #A7ABC4",
"3X c #ACB3CB",
"4X c #A4B0CC",
"5X c #A3AFD8",
"6X c #AEB9D1",
"7X c #AEBAD9",
"8X c #B3BBD2",
"9X c #A0AFE0",
"0X c #A5BAEA",
"qX c #B0BEEC",
"wX c #B7C0D5",
"eX c #BBC2D6",
"rX c #BDC6D9",
"tX c #B2C3E5",
"yX c #B3C8F3",
"uX c #C5CCDD",
"iX c #C9CFDF",
"pX c #C9D0DF",
"aX c #FFEEC0",
"sX c #FFF3C5",
"dX c #FFFEC7",
"fX c #FFFDCD",
"gX c #FFFFD6",
"hX c #FFFDDD",
"jX c #C3CFE8",
"kX c #CCD3E1",
"lX c #D1D7E4",
"zX c #D4DBE7",
"xX c #D8DDE9",
"cX c #D8DCE8",
"vX c #CAD6FE",
"bX c #CCDCFE",
"nX c #C4D0F5",
"mX c #D2DDF3",
"MX c #DEE3ED",
"NX c #D5E3FE",
"BX c #D8E6FF",
"VX c #E1E5EE",
"CX c #FFFDE2",
"ZX c #FFFFEE",
"AX c #E5EAF1",
"SX c #E0EDFF",
"DX c #E9ECF2",
"FX c #EEF2F6",
"GX c #EAF4FF",
"HX c #EAFAFF",
"JX c #FFFFF4",
"KX c #F3F5F8",
"LX c #F6FDFE",
"PX c #FFFFFF",
"IX c #F2F0F5",
"UX c None",
/* pixels */
"UXUXUXUXUXUXUXUXUXUXUXUXUXUXUXUXUXUXUXUXUXUXUXUXUXUXUXUXUXUXUXUXUXUXUXUXUXUXUXUXUXUXUXUXUXUXUXUXUXUXUXUXUXUXUXUXUXUXUXUXUXUXUXUX",
"UXUXUXUXUXUXUXUXUXUXUXUXUXUXUXUXUXUXUXUXUXUXUXUXUXUXUXUXUXUXUXUXUXUXUXUXUXUXUXUXUXUXUXUXUXUXUXUXUXUXUXUXUXUXUXUXUXUXUXUXUXUXUXUX",
"UXUXUXUXUXUXUXUXUXUXUXUXUXUXUXUXUXUXUXUXUXUXUXUXUXUXUXUXUXUXUXUXUXUXUXUXUXUXUXUXUXUXUXUXUXUXUXUXUXUXUXUXUXUXUXUXUXUXUXUXUXUXUXUX",
"UXUXUXUXUXUXUXUXUXUXUXUXUXUXUXUXUXUXUXUXUXUXUXUXUXUXUXUXUXUXUXUXUXUXUXUXUXUXUXUXUXUXUXUXUXUXUXUXUXUXUXUXUXUXUXUXUXUXUXUXUXUXUXUX",
"UXUXUXUXUXUXUXUXUXUXUXUXUXUXUXUXUXUXUXUXUXUXUXUXUXUXUXUXUX+ - ; ; - + UXUXUXUXUXUXUXUXUXUXUXUXUXUXUXUXUXUXUXUXUXUXUXUXUXUXUXUXUX",
"UXUXUXUXUXUXUXUXUXUXUXUXUXUXUXUXUXUXUXUXUXUXUXUX- 9 e u 9 6 3 > > 3 6 9 u e e ; UXUXUXUXUXUXUXUXUXUXUXUXUXUXUXUXUXUXUXUXUXUXUXUX",
"UXUXUXUXUXUXUXUXUXUXUXUXUXUXUXUXUXUXUXUXUXUXq u 7 % UXUXUXUXUXUXUXUXUXUXUXUXX 3 e 9 - UXUXUXUXUXUXUXUXUXUXUXUXUXUXUXUXUXUXUXUXUX",
"UXUXUXUXUXUXUXUXUXUXUXUXUXUXUXUXUXUXUX; s e UXUXUXUXUXV D L Y ) ) Y U G C UXUXUXUXUX7 0.2 UXUXUXUXUXUXUXUXUXUXUXUXUXUXUXUXUXUXUX",
"UXUXUXUXUXUXUXUXUXUXUXUXUXUXUXUXUXUXa u UXUXUXUXH ] *.*.*.} } { { { } *.*.=.[ L UXUXUXUX9 a - UXUXUXUXUXUXUXUXUXUXUXUXUXUXUXUXUX",
"UXUXUXUXUXUXUXUXUXUXUXUXUXUXUXUXq a UXUXUXA [ *.*.[ _ ' _ ' ' ( ' ' ' ' ' ' [ *.*.} H UXUXUXe u UXUXUXUXUXUXUXUXUXUXUXUXUXUXUXUX",
"UXUXUXUXUXUXUXUXUXUXUXUXUXUXUXa 9 UXUXUX} *.{ ' ' ' ' ' ' ' ' ' ' ' _ ' ' ' ' ' _ [ *.*.A UXUX4 w.UXUXUXUXUXUXUXUXUXUXUXUXUXUXUX",
"UXUXUXUXUXUXUXUXUXUXUXUXUXUXw.& UXUX` =.[ _ ' ' ' ' ' ' ' ' ' ' ' ' ' ' ' ' ' ' ' ' ' ' =.[ UXUXUXw.- UXUXUXUXUXUXUXUXUXUXUXUXUX",
"UXUXUXUXUXUXUXUXUXUXUXUXUXw.UXUXUX*.*._ ' ' ' ' _ ' ' ' ' ' ' _ ' ' ' ' ' ' ' ' ' ' ' ' ` { -.A UXUXw.- UXUXUXUXUXUXUXUXUXUXUXUX",
"UXUXUXUXUXUXUXUXUXUXUXUXw.UXUXS =.[ _ ' ' ' ' ' ' ' ' ' ( / / / ~ / / ( ( ' ' ' ' ' ' ' ' _ ( -.I UXUXs - UXUXUXUXUXUXUXUXUXUXUX",
"UXUXUXUXUXUXUXUXUXUXUXw.UXUXJ -.' ' ' ' ' ' ' ' ' / ~ ! ~ / ..X.X.../ ~ ! ~ / ' ' ' ' ' ' _ _ _ =.E UXUXe.UXUXUXUXUXUXUXUXUXUXUX",
"UXUXUXUXUXUXUXUXUXUXs o UXS -.' ' ' ' ' ' ' ' / ! / %.9.&XZXPXPXPXPXJXdX.X;./ ! / ' ' ' ' ' ' ' _ =.R UXUXw.UXUXUXUXUXUXUXUXUXUX",
"UXUXUXUXUXUXUXUXUXq 7 UXm -.' _ ' ' ' ' ' ' ! ~ ,.gXPXPXGX0XW.D.F.*X5XbXPXPXCX9./ ! / ' ' ' ' ' ' _ -.S UX- s UXUXUXUXUXUXUXUXUX",
"UXUXUXUXUXUXUXUXUX0.UXUX=.] ` ' ' ' ' ' / Q &.sXPXNXI.c r % r b.c * : r v M.nXPXCX:.! / ' ' ' ' ' ' ' =.UXUXu - UXUXUXUXUXUXUXUX",
"UXUXUXUXUXUXUXUXs UXUX' } ' ' ' ' ' ' / ! 7.PXLXc.8 m.J., * {.PXlX: : {.8Xm.8 z BXPXoX~ ~ | ' ' ' ' _ { *.UXUXs UXUXUXUXUXUXUXUX",
"UXUXUXUXUXUXUX; 9 UXN -._ ' ' ' ' ' / Q +XPX7X> z pXPXpX: * !.PX6X, : >XPXPXMXz.> '.PX%X/ ~ ' ' ' ' ' _ *.J UX1 4 UXUXUXUXUXUXUX",
"UXUXUXUXUXUXUXs UXUX} [ ' ' ' ' ' / Q oXPX'.6 2XPXPXPXrX: * {.PXkX: * 4XPXPXPXPX3X< M.PXsX! / ' ' ' ' ' ] *.UXUXs UXUXUXUXUXUXUX",
"UXUXUXUXUXUX+ 9 UXF =._ ' ' ' ' ' Q |.PX!.X 6XPXVXMXVX;X, : G.uX[.< : ].IXPXPXPXPXFX: c.PX$XQ / ' ' ' _ ` *.Y UX3 4 UXUXUXUXUXUX",
"UXUXUXUXUXUX9 UXUX{ [ ' ' ' ' ' ! &.PX7X7 {.c 6 9 9 9 9 e e 7 6 6 e e 9 t u.Y.uXPXPXAX: Q.PX4.Q ' ' ' ' _ ' *.UXUXu UXUXUXUXUXUX",
"UXUXUXUXUXUXe UXUX=._ ' ' ' ' / Q hXLX: uXFXX * : < 7 7 e u 6 , , 5 9 7 6 : * : /.PXPXzX* mXPX_ / _ ' ' ' _ *.A UX7 O UXUXUXUXUX",
"UXUXUXUXUX- 3 UXK *._ _ ' ' ' ! <.PXd.j PXzXp.x.a.6 7 e e 9 r j f i 6 : 6 u e 3 % :XPXPXJ.p PXXXQ ( ' ' ' ' { ) UX& 2 UXUXUXUXUX",
"UXUXUXUXUXe X UX[ [ ' ' ' ' / / JXNX: MXPXPXPXPXPX}., 9 e : L.KXKXDXlX!., 6 e u : h PXPXPX: 1XPX| / ' _ ' _ ] *.UXUX9 UXUXUXUXUX",
"UXUXUXUXUXe UXUX*._ ' ' ' ' ~ &.PXD.h.PXPXPXPXPXPXAX6 6 9 * R.PXPXPXPXPX{., 9 e 6 9 AXPXPXL.k PX8.Q ' ' ' ' _ *.# UXe UXUXUXUXUX",
"UXUXUXUXUXe UXZ *._ ' ' ' ' ! XXPXh 6XPXPXPXPXPXPXlX6 6 e : P.PXPXPXPXPXPXi 3 q 6 6 MXPXPXKXp SXfX! ( ' ' ' _ *.G UX7 + UXUXUXUX",
"UXUXUXUXUX7 UXJ *.' ' ' ' / ~ fXNXj LXPXPXPXPXPXPXlX6 9 9 : P.PXPXPXPXPXzX6 6 e , i LXPXPXPXr.<XPX' / ' ' ' ' { ) UX> ; UXUXUXUX",
"UXUXUXUX- 3 UXR } _ ' ' ' / ( PX).r.PXPXPXPXPXPXPXlX6 6 9 * /.PXPXPXPXeXg < u 7 % {.PXPXPXPXZ.F.PXO.~ ' ' _ ' [ [ UX* 4 UXUXUXUX",
"UXUXUXUX; > UX) { ' ' ' ' / X.PXS.b.PXPXPXPXPXPXPXlX6 7 e 3 a.!.R.G.c < , u 7 < -XPXPXPXPXPXQ.h.PX>.~ ' ' ' _ ] { UXX 4 UXUXUXUX",
"UXUXUXUX; = UX) { ' ' ' ' ~ O.PXj.G.PXPXPXPXPXPXPXlX6 6 e u < * * * , 9 e 9 9 w U.eXPXPXPXPX{.a.PX,.! ' ' ' ' ] } UXUX7 UXUXUXUX",
"UXUXUXUX; = UX) { ' ' ' ' ~ O.PXg.G.PXPXPXPXPXPXPXlX6 9 e e 6 6 < < , : : 9 u e : % -XPXPXPX{.a.PX,.! ' ' _ ' ] { UXUX7 UXUXUXUX",
"UXUXUXUX; > UX) { ' ' ' ' / +.PXk.N.PXPXPXPXPXPXPXlX6 6 e , Z.uXrXeX3X[.s., 7 e e > < xXPXPX/.f.PX>.! ' ' ' ' ] { UXUX4 UXUXUXUX",
"UXUXUXUX- 3 UXT { ' ' ' ' / ' PXH.i.PXPXPXPXPXPXPXlX6 6 e * !.PXPXPXPXPXPX`.: e e u * L.PXPXG.N.PX&.~ ' ' ' ' ] [ UX% 4 UXUXUXUX",
"UXUXUXUXO 6 UXL } ' ' ' ' / / CXyXk PXPXPXPXPXPXPXlX6 7 9 * P.PXPXPXPXPXPXPXc , 9 e : n.PXPXd.).PX| / ' ' ' ' { ' UX> 2 UXUXUXUX",
"UXUXUXUXUX9 UXA *.' ' ' ' ' ! #XPXh kXPXPXPXPXPXPXlX6 6 9 : P.PXPXPXPXPXPXPXd.: 9 e : N.PXPXh bXhX/ ( ' ' ' ' *.L UX7 + UXUXUXUX",
"UXUXUXUXUXe UXUX=.' ' ' ' ' ! ,.PXy.J.PXPXPXPXPXPXAX6 6 e * T.PXPXPXPXPXPXuX6 7 e e * L.PX>Xp PXXXQ ' ' ' ' ' *.M UXe UXUXUXUXUX",
"UXUXUXUXUXe UXUX} ] ' ' ' ' / _ PXtX6 LXPXPXPXPXPX6X< 9 e * Q.PXPXPXPXuXE.7 < e e 7 : zXPX9 W.PXO.~ ' ' ' ' ' *.UXUXe UXUXUXUXUX",
"UXUXUXUXUX2 > UXR } ' ' ' ' ' Q OXPX9 A.PXPXQ.l.b.e 6 e e 6 k b.f.a.c < : 6 u e e % b.PX6X: LXsX! / ' ' ' ' [ [ UXUX4 UXUXUXUXUX",
"UXUXUXUXUXUXe UXN =._ _ _ ' ' / / PXjX: VXPX7 % : 6 e e e e 6 : : , > 9 e 9 6 , * u.PXPX, ,XPX+.! ' ' ' ' _ *.H UX3 + UXUXUXUXUX",
"UXUXUXUXUXUXe UXUX*.] _ _ ' ' ' Q 6.PXL.p MX< * : : : , e u < : , u e < : : 6 x `.PXPXl r.PX@XQ ( ' ' ' ' ' =.UXUXu UXUXUXUXUXUX",
"UXUXUXUXUXUX; 3 UXL *._ ' ' ' ' / ! %XPXf.: ;X>X{.{.[.A.3 3 d.].C.6 < C.:X8XcXPXPXPXu.6 PXCX) / ' ' ' ' _ { ' UX= q UXUXUXUXUXUX",
"UXUXUXUXUXUXUX0.UXUX=.' ' ' ' ' ' ~ / hXPXu.x PXPXPXPXpX: * [.PXkX: * 6XPXPXPXPXLXz 6 PXPX| ! ' ' ' _ ' ' -.@ UXa   UXUXUXUXUXUX",
"UXUXUXUXUXUXUX4 1 UXJ =.` ' ' ' ' ' ~ ..CXPXV.> _.PXPXwX: * R.PX6X, : ;XPXPXPX2X8 n PXPX#.! ' ' ' ' ' _ } ^ UXUXu UXUXUXUXUXUXUX",
"UXUXUXUXUXUXUXUXs UXUX} [ ' ' ' ' ' ' ~ _ %XPX7X0 0 =X6X< * [.PXkX: * 7XPX:Xy 1 =XPXhXo.! ' ' ' ' ' _ ] -.UXUXs UXUXUXUXUXUXUXUX",
"UXUXUXUXUXUXUXUX; 9 UXm -.' ' ' ' ' ' | ~ ~  XPXPX^.v t : X r.>XL.% % f v g K.GXPX@X_ ! ' ' ' ' ' ' _ *.G UX2 7 UXUXUXUXUXUXUXUX",
"UXUXUXUXUXUXUXUXUXs - UXH *._ ' ' ' ' ' ' / ! o.+XPXPXvX5X^.n.i.a.C.W.].qXPXPX&X#.Q ~ ' ' ' ' ' ' ` *.^ UXUXw.UXUXUXUXUXUXUXUXUX",
"UXUXUXUXUXUXUXUXUXUXw.UXUX) *.' _ ' ' ' ' ' ' ~ ! O. XgXPXPXPXPXPXPXPXPXCXOX$.! ! ( ' ' ' ' _ ' ` } } UXUXq.. UXUXUXUXUXUXUXUXUX",
"UXUXUXUXUXUXUXUXUXUX. w.UXUX' *._ ' ' ' ' ' ' ' ' / ! ~ | &.1.3.4.,.$.X./ ! ~ ( ' ' ' ' ' ' ' ` } } UXUXa ; UXUXUXUXUXUXUXUXUXUX",
"UXUXUXUXUXUXUXUXUXUXUX2 0.UXUX` =.' _ _ ' _ ' ' ' ' ' / / ~ ! ! ! ! ~ / / ( ' ' ' ' ' ' ' _ ` *.} UXUXe e UXUXUXUXUXUXUXUXUXUXUX",
"UXUXUXUXUXUXUXUXUXUXUXUX2 a UXUXP =.] _ ' ' ' ' ' ' ' ' ' ' ' ' ' ' ' ' ' ' ' ' ' ' ' ' ' ' *.^ UXUXe 9 UXUXUXUXUXUXUXUXUXUXUXUX",
"UXUXUXUXUXUXUXUXUXUXUXUXUX4 w.UXUXB =.*.' ' ' ' ' ' ' ' _ ' ( ' ' ' ' ' ' ' ' ' ' ' _ _ } -.H UXUXa e UXUXUXUXUXUXUXUXUXUXUXUXUX",
"UXUXUXUXUXUXUXUXUXUXUXUXUXUX- s UXUXUXI *.} ' ' ' ' ' ' ' ' ' ' ' ' ' ' ' ' ' ' ' _ { =.^ UXUXUXs 2 UXUXUXUXUXUXUXUXUXUXUXUXUXUX",
"UXUXUXUXUXUXUXUXUXUXUXUXUXUXUXUX0.9 UXUXUX) *.*.[ ' ' ' ' ' _ ' ' ' ' ' ' ' ' [ *.=.] $ UXUX3 w.O UXUXUXUXUXUXUXUXUXUXUXUXUXUXUX",
"UXUXUXUXUXUXUXUXUXUXUXUXUXUXUXUXUX4 a ; UXUXUXH ] *.*.*.{ ] ] ' ' ' [ [ } *.*.{ K UXUXUXUXu 9 UXUXUXUXUXUXUXUXUXUXUXUXUXUXUXUXUX",
"UXUXUXUXUXUXUXUXUXUXUXUXUXUXUXUXUXUXUX9 a > UXUXUXUXV J ` { } *.*.} { ] L C UXUXUXUX= a 9 UXUXUXUXUXUXUXUXUXUXUXUXUXUXUXUXUXUXUX",
"UXUXUXUXUXUXUXUXUXUXUXUXUXUXUXUXUXUXUXUXUXq u 7 UXUXUXUXUXUXUXUXUXUXUXUXUXUXUXUX3 u e + UXUXUXUXUXUXUXUXUXUXUXUXUXUXUXUXUXUXUXUX",
"UXUXUXUXUXUXUXUXUXUXUXUXUXUXUXUXUXUXUXUXUXUXUX- 4 e 9 7 = % UXUXUXUXUX= 3 e e 7 - UXUXUXUXUXUXUXUXUXUXUXUXUXUXUXUXUXUXUXUXUXUXUX",
"UXUXUXUXUXUXUXUXUXUXUXUXUXUXUXUXUXUXUXUXUXUXUXUXUXUXUX- 2 4 q 7 7 7 4 4 ; UXUXUXUXUXUXUXUXUXUXUXUXUXUXUXUXUXUXUXUXUXUXUXUXUXUXUX",
"UXUXUXUXUXUXUXUXUXUXUXUXUXUXUXUXUXUXUXUXUXUXUXUXUXUXUXUXUXUXUXUXUXUXUXUXUXUXUXUXUXUXUXUXUXUXUXUXUXUXUXUXUXUXUXUXUXUXUXUXUXUXUXUX",
"UXUXUXUXUXUXUXUXUXUXUXUXUXUXUXUXUXUXUXUXUXUXUXUXUXUXUXUXUXUXUXUXUXUXUXUXUXUXUXUXUXUXUXUXUXUXUXUXUXUXUXUXUXUXUXUXUXUXUXUXUXUXUXUX",
"UXUXUXUXUXUXUXUXUXUXUXUXUXUXUXUXUXUXUXUXUXUXUXUXUXUXUXUXUXUXUXUXUXUXUXUXUXUXUXUXUXUXUXUXUXUXUXUXUXUXUXUXUXUXUXUXUXUXUXUXUXUXUXUX",
"UXUXUXUXUXUXUXUXUXUXUXUXUXUXUXUXUXUXUXUXUXUXUXUXUXUXUXUXUXUXUXUXUXUXUXUXUXUXUXUXUXUXUXUXUXUXUXUXUXUXUXUXUXUXUXUXUXUXUXUXUXUXUXUX"
};
