/* XPM */
static char *graphic[] = {
/* width height num_colors chars_per_pixel */
"16 16 162 2", 
/* colors */
"   c None",
".  c None",
"X  c #F6C105",
"o  c None",
"O  c #AFB2AE",
"+  c None",
"@  c None",
"#  c None",
"$  c #F19500",
"%  c None",
"&  c #ED981E",
"*  c #F4B71F",
"=  c #AFB0AD",
"-  c #F5AD00",
";  c #506496",
":  c #EBEDF3",
">  c #FAD63D",
",  c #7D8CB1",
"<  c #FDFDFE",
"1  c #EE8D05",
"2  c #F8BF00",
"3  c #ED8800",
"4  c #96A3C0",
"5  c None",
"6  c #AFAEAD",
"7  c #EE8A00",
"8  c #94A0BD",
"9  c #FAC700",
"0  c #9AA2B6",
"q  c #3A528A",
"w  c #F9CF05",
"e  c #F9C300",
"r  c #EE8C00",
"t  c None",
"y  c #AFACAD",
"u  c #F5AE21",
"i  c #FACE22",
"p  c #F09400",
"a  c #7988AF",
"s  c None",
"d  c #6577A3",
"f  c #EF8F05",
"g  c None",
"h  c #CCC69E",
"j  c #485E92",
"k  c #F09200",
"l  c #BDC4D7",
"z  c #EAECF2",
"x  c #E2CB80",
"c  c #EF9A05",
"v  c None",
"b  c #E3D180",
"n  c #CAB69D",
"m  c #C6CCDD",
"M  c #CBBC9D",
"N  c #F2A93C",
"B  c #95A0BD",
"V  c #CDD3E1",
"C  c #445A8F",
"Z  c #3B528A",
"A  c #8392B5",
"S  c #B0BAD0",
"D  c #F9CA00",
"F  c #CCC09D",
"G  c #F2AA05",
"H  c None",
"J  c #F2A120",
"K  c #8C98BA",
"L  c None",
"P  c None",
"I  c #F3A600",
"U  c #DBDFE9",
"Y  c #EE9100",
"T  c #526697",
"R  c #F29C00",
"E  c #F5B900",
"W  c #7F8EB2",
"Q  c #C7CEDD",
"!  c #919EBD",
"~  c None",
"^  c #F5BE1F",
"/  c #BEC6D8",
"(  c #EBEEF3",
")  c #374E88",
"_  c #C7CEDE",
"`  c None",
"'  c #F8CC05",
"]  c #AFB1AE",
"[  c None",
"{  c #ED971E",
"}  c #F8D020",
"|  c #F4B205",
" . c #F9CF3D",
".. c #FBCE00",
"X. c None",
"o. c None",
"O. c None",
"+. c #E7EAF0",
"@. c #CCD2E0",
"#. c #697AA5",
"$. c #EE8D00",
"%. c #9AA3B7",
"&. c #9DA9C4",
"*. c None",
"=. c #ED8900",
"-. c #FAC600",
";. c #6779A4",
":. c #9AA1B6",
">. c #F09C20",
",. c #FAD33D",
"<. c #F8C121",
"1. c None",
"2. c None",
"3. c #AFABAD",
"4. c #F19D00",
"5. c #F9D220",
"6. c #F2AC3C",
"7. c #FBD322",
"8. c #ECEEF3",
"9. c None",
"0. c None",
"q. c #E3E6EE",
"w. c #FACB21",
"e. c #C8CEDE",
"r. c None",
"t. c #A2ADC7",
"y. c #E1C680",
"u. c #BFC6D9",
"i. c #6C7DA7",
"p. c None",
"a. c #ECEEF4",
"s. c None",
"d. c #DFB87F",
"f. c #F1AB1F",
"g. c #FCD200",
"h. c #E0BE7F",
"j. c #95A1BD",
"k. c #E1C47F",
"l. c #909DBD",
"z. c #A0ACC6",
"x. c #F3B03C",
"c. c #FBCE00",
"v. c #6A7CA6",
"b. c #E3D281",
"n. c None",
"m. c #F9CB00",
"M. c #DFB67F",
"N. c #F2A421",
"B. c #F4B43C",
"V. c #CDD2E1",
"C. c #C2C9DA",
"Z. c #F3A100",
"A. c #F9BC00",
"S. c #6678A3",
"D. c #CBD1E0",
"F. c None",
"G. c #F5B300",
"H. c #42588E",
"J. c None",
"K. c #FCCE00",
"L. c #F3B31F",
"P. c #F8CC3D",
/* pixels */
"            o.@ @ g             ",
"        9.J...m.D -.1.%         ",
"    v s g.w 7.> ,.w.X A.p.v     ",
"    s c.5.b.O %.%.] x ^ G.2.    ",
"  o K.} h j.m / u._ B F * - +   ",
"  t ' b j.l i.) q z.+.B k.G 5   ",
"g 9 i ] V z ; K S T D.@.6 u Z.g ",
"@ e  .%.a.< S.#.A Z e.( 0 B.R [ ",
". 2 P.%.8.< ;.a &.d ! : :.x.$ [ ",
"g E <.= V.q.j , t.v.l.D.y J k g ",
"  0.| y.B C.W H.C 4 U 8 d.f F.  ",
"  # - L.M 8 Q D.@.e.8 n & r L   ",
"    n.I f.h.y :.:.3.M.{ =.~     ",
"    v ` 4.c N.6.N >.1 3 *.X.    ",
"        P s.p Y $.7 r.H         ",
"            g O.O.g             "
};
