<svg height="640pt" preserveAspectRatio="xMidYMid meet" viewBox="0 0 1000 640" width="1000pt" xmlns="http://www.w3.org/2000/svg" xmlns:xlink="http://www.w3.org/1999/xlink"><linearGradient id="a" x1="0%" x2="100%" y1="0%" y2="100%"><stop offset="0" stop-color="#efefef"/><stop offset=".33" stop-color="#efefef"/><stop offset=".8" stop-color="#cdcdcd"/><stop offset="1" stop-color="#ccc"/></linearGradient><path d="m0 0h1000v640h-1000z" fill="url(#a)"/><text fill="#808080" font-family="&quot;Tuffy&quot;" font-size="86" text-anchor="middle" transform="matrix(.9 0 0 1 500 0)" y="114">PACKAGE_NAME</text><path d="m4995 3705c-24-23-25-29-25-165v-140h-306-306l-29-29c-29-29-29-31-29-141s0-112 29-141l29-29h306 306v-140c0-136 1-142 25-165 16-17 35-25 57-25 29 0 72 32 306 226 180 149 274 233 278 250 13 53-2 70-278 299-235 194-277 225-306 225-22 0-41-8-57-25z" transform="matrix(.1 0 0 -.1 0 640)"/></svg>