<svg enable-background="new 0 0 1024 1024" viewBox="0 0 1024 1024" xmlns="http://www.w3.org/2000/svg" xmlns:xlink="http://www.w3.org/1999/xlink"><linearGradient id="a" gradientTransform="matrix(1 0 0 -1 0 1024)" gradientUnits="userSpaceOnUse" x1="270.131" x2="811.8914" y1="878.0371" y2="58.1535"><stop offset=".005128205" stop-color="#f1d200"/><stop offset="1" stop-color="#d27d00"/></linearGradient><circle cx="512" cy="512" fill="#fff" r="396"/><path d="m512 60c-249.6 0-452 202.4-452 452s202.4 452 452 452 452-202.4 452-452-202.4-452-452-452zm0 799.9c-192.1 0-347.9-155.8-347.9-347.9s155.8-347.9 347.9-347.9 347.9 155.8 347.9 347.9-155.8 347.9-347.9 347.9z" fill="url(#a)"/><g fill="#132365"><path d="m361.3 666.6 17.4-34.7h208.6c28.7 0 52.1-23.4 52.1-52.1 0-28.7-23.4-52.1-52.1-52.1h-173.8v-34.7h173.9c48 0 86.8 39 86.8 86.8 0 48-39 86.8-86.8 86.8z"/><path d="m587.3 676.1h-241.6l27.1-54.1h214.6c23.4 0 42.5-19.1 42.5-42.5s-19-42.5-42.4-42.5h-183.6v-54.1h183.4c53.2 0 96.6 43.2 96.6 96.6s-43.4 96.6-96.6 96.6zm-210.4-19.3h210.4c42.5 0 77.3-34.7 77.3-77.3s-34.7-77.3-77.3-77.3h-164.1v15.4h164.1c34 0 61.9 27.7 61.9 61.9 0 34-27.7 61.9-61.9 61.9h-202.6z"/><path d="m361.3 351.8 17.4 34.7h185.4c28.7 0 52.1 23.4 52.1 52.1 0 28.7-23.4 52.1-52.1 52.1h-133.3v34.7h133.3c48 0 86.8-39 86.8-86.8 0-48-39-86.8-86.8-86.8z"/><path d="m564.1 535.2h-142.8v-54.1h142.9c23.4 0 42.5-19.1 42.5-42.5s-19.1-42.5-42.5-42.5h-191.5l-27.1-54.1h218.4c53.2 0 96.6 43.2 96.6 96.6.1 53.2-43.1 96.6-96.5 96.6zm-123.5-19.3h123.5c42.5 0 77.3-34.7 77.3-77.3s-34.6-77.3-77.3-77.3h-187.2l7.8 15.4h179.4c34 0 61.9 27.7 61.9 61.9s-27.7 61.9-61.9 61.9h-123.5z"/><path d="m413.5 353.5h34.7v312.8h-34.7z"/><path d="m457.9 676.1h-54.1v-332.1h54.1zm-34.7-19.3h15.4v-293.5h-15.4z"/><path d="m456 299.5h34.7v69.5h-34.7z"/><path d="m495.5 373.9h-44.5v-79.2h44.5zm-34.7-9.7h25.2v-59.9h-25.2z"/><path d="m531.3 299.5h34.7v69.5h-34.7z"/><path d="m570.8 373.9h-44.5v-79.2h44.5zm-34.7-9.7h25.2v-59.9h-25.2z"/><path d="m456 647.2h34.7v69.5h-34.7z"/><path d="m495.5 721.5h-44.5v-79.2h44.5zm-34.7-9.6h25.2v-59.9h-25.2z"/><path d="m531.3 647.2h34.7v69.5h-34.7z"/><path d="m570.8 721.5h-44.5v-79.2h44.5zm-34.7-9.6h25.2v-59.9h-25.2z"/><path d="m512 820.1c-169.8 0-308.1-138.1-308.1-308.1 0-169.8 138.1-308.1 308.1-308.1 169.8 0 308.1 138.1 308.1 308.1 0 169.8-138.3 308.1-308.1 308.1zm0-585.3c-152.8 0-277.2 124.4-277.2 277.2s124.4 277.2 277.2 277.2 277.2-124.4 277.2-277.2-124.4-277.2-277.2-277.2z"/></g></svg>