<?xml version="1.0" encoding="utf-8"?>
<!-- Generator: Adobe Illustrator 23.0.2, SVG Export Plug-In . SVG Version: 6.00 Build 0)  -->
<svg version="1.1"
	 id="svg2" xmlns:cc="http://creativecommons.org/ns#" xmlns:dc="http://purl.org/dc/elements/1.1/" xmlns:inkscape="http://www.inkscape.org/namespaces/inkscape" xmlns:rdf="http://www.w3.org/1999/02/22-rdf-syntax-ns#" xmlns:sodipodi="http://sodipodi.sourceforge.net/DTD/sodipodi-0.dtd" xmlns:svg="http://www.w3.org/2000/svg"
	 xmlns="http://www.w3.org/2000/svg" xmlns:xlink="http://www.w3.org/1999/xlink" x="0px" y="0px" viewBox="0 0 1024 1024"
	 style="enable-background:new 0 0 1024 1024;" xml:space="preserve">
<style type="text/css">
	.st0{fill:#FFFFFF;}
	.st1{fill:url(#SVGID_1_);}
	.st2{fill:#132365;}
</style>
<g>
	<g>
		<circle class="st0" cx="512" cy="512" r="396"/>

			<linearGradient id="SVGID_1_" gradientUnits="userSpaceOnUse" x1="270.131" y1="878.0371" x2="811.8914" y2="58.1535" gradientTransform="matrix(1 0 0 -1 0 1024)">
			<stop  offset="5.128205e-03" style="stop-color:#F1D200"/>
			<stop  offset="1" style="stop-color:#D27D00"/>
		</linearGradient>
		<path class="st1" d="M512,60C262.4,60,60,262.4,60,512s202.4,452,452,452s452-202.4,452-452S761.6,60,512,60z M512,859.9
			c-192.1,0-347.9-155.8-347.9-347.9S319.9,164.1,512,164.1S859.9,319.9,859.9,512S704.1,859.9,512,859.9z"/>
		<g>
			<g>
				<path id="XMLID_145_" class="st2" d="M361.3,666.6l17.4-34.7h208.6c28.7,0,52.1-23.4,52.1-52.1l0,0c0-28.7-23.4-52.1-52.1-52.1
					H413.5v-34.7h173.9c48,0,86.8,39,86.8,86.8l0,0c0,48-39,86.8-86.8,86.8H361.3z"/>
				<path class="st2" d="M587.3,676.1H345.7l27.1-54.1h214.6c23.4,0,42.5-19.1,42.5-42.5S610.9,537,587.5,537H403.9v-54.1h183.4
					c53.2,0,96.6,43.2,96.6,96.6C683.9,632.9,640.5,676.1,587.3,676.1z M376.9,656.8h210.4c42.5,0,77.3-34.7,77.3-77.3
					s-34.7-77.3-77.3-77.3H423.2v15.4h164.1c34,0,61.9,27.7,61.9,61.9c0,34-27.7,61.9-61.9,61.9H384.7L376.9,656.8z"/>
			</g>
			<g>
				<path id="XMLID_144_" class="st2" d="M361.3,351.8l17.4,34.7h185.4c28.7,0,52.1,23.4,52.1,52.1l0,0c0,28.7-23.4,52.1-52.1,52.1
					H430.8v34.7h133.3c48,0,86.8-39,86.8-86.8l0,0c0-48-39-86.8-86.8-86.8H361.3z"/>
				<path class="st2" d="M564.1,535.2H421.3v-54.1h142.9c23.4,0,42.5-19.1,42.5-42.5c0-23.4-19.1-42.5-42.5-42.5H372.7L345.6,342
					h218.4c53.2,0,96.6,43.2,96.6,96.6C660.7,491.8,617.5,535.2,564.1,535.2z M440.6,515.9h123.5c42.5,0,77.3-34.7,77.3-77.3
					s-34.6-77.3-77.3-77.3H376.9l7.8,15.4h179.4c34,0,61.9,27.7,61.9,61.9c0,34.2-27.7,61.9-61.9,61.9H440.6V515.9z"/>
			</g>
			<g>
				<rect id="XMLID_143_" x="413.5" y="353.5" class="st2" width="34.7" height="312.8"/>
				<path class="st2" d="M457.9,676.1h-54.1V344h54.1V676.1z M423.2,656.8h15.4V363.3h-15.4L423.2,656.8L423.2,656.8z"/>
			</g>
			<g>
				<rect id="XMLID_142_" x="456" y="299.5" class="st2" width="34.7" height="69.5"/>
				<path class="st2" d="M495.5,373.9H451v-79.2h44.5V373.9z M460.8,364.2h25.2v-59.9h-25.2V364.2z"/>
			</g>
			<g>
				<rect id="XMLID_141_" x="531.3" y="299.5" class="st2" width="34.7" height="69.5"/>
				<path class="st2" d="M570.8,373.9h-44.5v-79.2h44.5V373.9z M536.1,364.2h25.2v-59.9h-25.2V364.2z"/>
			</g>
			<g>
				<rect id="XMLID_140_" x="456" y="647.2" class="st2" width="34.7" height="69.5"/>
				<path class="st2" d="M495.5,721.5H451v-79.2h44.5V721.5z M460.8,711.9h25.2V652h-25.2V711.9z"/>
			</g>
			<g>
				<rect id="XMLID_139_" x="531.3" y="647.2" class="st2" width="34.7" height="69.5"/>
				<path class="st2" d="M570.8,721.5h-44.5v-79.2h44.5V721.5z M536.1,711.9h25.2V652h-25.2V711.9z"/>
			</g>
		</g>
		<path class="st2" d="M512,820.1C342.2,820.1,203.9,682,203.9,512c0-169.8,138.1-308.1,308.1-308.1
			c169.8,0,308.1,138.1,308.1,308.1C820.1,681.8,681.8,820.1,512,820.1z M512,234.8c-152.8,0-277.2,124.4-277.2,277.2
			S359.2,789.2,512,789.2S789.2,664.8,789.2,512S664.8,234.8,512,234.8z"/>
	</g>
</g>
</svg>
