<svg enable-background="new 0 0 841.9 841.9" viewBox="0 0 841.9 841.9" xmlns="http://www.w3.org/2000/svg"><path d="m297.6 677.3c-68.5 0-132.9-26.7-181.3-75.1s-75-112.8-75-181.3 26.7-132.9 75.1-181.3 112.8-75.1 181.3-75.1 132.9 26.7 181.3 75.1 75.1 112.8 75.1 181.3-26.7 132.9-75.1 181.3-112.9 75.1-181.4 75.1zm0-472.7c-57.8 0-112.1 22.5-153 63.4s-63.4 95.2-63.4 153 22.5 112.1 63.4 153 95.2 63.4 153 63.4 112.1-22.5 153-63.4 63.4-95.2 63.4-153-22.5-112.1-63.4-153c-40.8-40.9-95.2-63.4-153-63.4z"/><path d="m465.2 601.6 68.8-180.7-55.7-167.5-180.7-68.8v236.3 236.4z"/></svg>