<svg height="92" viewBox="0 0 24 24" width="92" xmlns="http://www.w3.org/2000/svg"><g transform="matrix(0 1 -1 0 130.6 -35.86)"><g transform="matrix(-1 0 0 1 -16.98 .8136)"><path d="m-65.35 116.3v3h.5c.54 0 1 .5 1 1v2.6c-1.15.5-2 1.6-2 3 0 2 1.59 3.5 3.5 3.5s3.5-1.5 3.5-3.5c0-1.4-.85-2.5-2-3v-2.6c0-2.3-1.81-4-4-4zm1 1.2c1.39.3 2.5 1.3 2.5 2.8v3.2l.34.1c.96.3 1.66 1.2 1.66 2.3 0 1.4-1.11 2.5-2.5 2.5s-2.5-1.1-2.5-2.5c0-1.1.69-2 1.66-2.3l.34-.1v-3.2c0-.9-.67-1.5-1.5-1.8z"/><path d="m-67.35 106.1c-1.94 0-3.5 1.6-3.5 3.5 0 1.4.85 2.5 2 3v2.7c0 2.2 1.79 4 4 4h.5v-.5-2.5h-.5c-.55 0-1-.5-1-1v-2.7c1.15-.5 2-1.6 2-3 0-1.9-1.57-3.5-3.5-3.5zm0 1c1.37 0 2.5 1.2 2.5 2.5 0 1.1-.7 2-1.66 2.3l-.34.1v3.3c0 .9.67 1.5 1.5 1.8v1c-1.38-.3-2.5-1.4-2.5-2.8v-3.3l-.34-.1c-.96-.3-1.66-1.2-1.66-2.3 0-1.3 1.12-2.5 2.5-2.5z"/><path d="m-57.35 106c-1.99 0-3.6 1.7-3.6 3.6 0 1.4.83 2.6 2 3.2v2.5c0 .5-.41.9-.9.9h-4.35a.6001.6001 0 0 0 -.6.6v2a.6001.6001 0 0 0 .6.6h4.35c2.26 0 4.1-1.9 4.1-4.1v-2.5c1.17-.6 2-1.8 2-3.2 0-1.9-1.6-3.6-3.6-3.6z"/><path d="m-69.84 116.2c-2.24 0-4.1 1.8-4.1 4.1v2.5c-1.17.5-1.99 1.7-1.99 3.1 0 2 1.64 3.6 3.61 3.6 1.96 0 3.6-1.6 3.6-3.6 0-1.4-.83-2.6-2-3.2v-2.4c0-.5.41-.9.9-.9h4.51a.6001.6001 0 0 0 .6-.6v-2a.6001.6001 0 0 0 -.6-.6z"/></g><path d="m47.86 115.4c-.84 0-1.65.4-2.24 1-.64.5-.96 1.3-.96 2.2s.32 1.7.96 2.2c.59.6 1.4 1 2.24 1s1.65-.4 2.24-1c.64-.5.96-1.3.96-2.2s-.32-1.7-.96-2.2c-.59-.6-1.4-1-2.24-1z"/></g></svg>