<svg height="92" viewBox="0 0 24 24" width="92" xmlns="http://www.w3.org/2000/svg"><g transform="matrix(0 -1 -1 0 23.96 24)"><g transform="translate(76.84 -105.7864)"><path d="m-65.35 116.3v3h.5c.54 0 1 .5 1 1v2.6c-1.15.5-2 1.6-2 3 0 2 1.59 3.5 3.5 3.5s3.5-1.5 3.5-3.5c0-1.4-.85-2.5-2-3v-2.6c0-2.3-1.81-4-4-4zm1 1.2c1.39.3 2.5 1.3 2.5 2.8v3.2l.34.1c.96.3 1.66 1.2 1.66 2.3 0 1.4-1.11 2.5-2.5 2.5s-2.5-1.1-2.5-2.5c0-1.1.69-2 1.66-2.3l.34-.1v-3.2c0-.9-.67-1.5-1.5-1.8z"/><g fill="#000"><path d="m-67.35 106.1c-1.94 0-3.5 1.6-3.5 3.5 0 1.4.85 2.5 2 3v2.7c0 2.2 1.79 4 4 4h.5v-.5-2.5h-.5c-.55 0-1-.5-1-1v-2.7c1.15-.5 2-1.6 2-3 0-1.9-1.57-3.5-3.5-3.5zm0 1c1.37 0 2.5 1.2 2.5 2.5 0 1.1-.7 2-1.66 2.3l-.34.1v3.3c0 .9.67 1.5 1.5 1.8v1c-1.38-.3-2.5-1.4-2.5-2.8v-3.3l-.34-.1c-.96-.3-1.66-1.2-1.66-2.3 0-1.3 1.12-2.5 2.5-2.5z"/><path d="m-57.35 106.1c-1.93 0-3.5 1.6-3.5 3.5 0 1.4.85 2.5 2 3v2.7c0 .5-.45 1-1 1h-4.85l3.17 3h1.68c2.21 0 4-1.8 4-4v-2.7c1.15-.5 2-1.6 2-3 0-1.9-1.56-3.5-3.5-3.5zm0 1c1.38 0 2.5 1.2 2.5 2.5 0 1.1-.7 2-1.66 2.3l-.34.1v3.3c0 1.6-1.35 3-3 3h-1.81l-2.04-1h3.85c1.11 0 2-.9 2-2v-3.3l-.34-.1c-.96-.3-1.66-1.2-1.66-2.3 0-1.3 1.13-2.5 2.5-2.5z"/></g><path d="m-69.84 116.3c-2.19 0-4 1.7-4 4v2.6c-1.14.6-1.99 1.6-1.99 3 0 2 1.6 3.5 3.51 3.5s3.5-1.5 3.5-3.5c0-1.4-.85-2.5-2-3v-2.6c0-.5.45-1 1-1h5.01l-3.36-3zm0 1h1.84l2.19 1h-4.01c-1.11 0-2 .9-2 2v3.2l.34.1c.96.3 1.66 1.2 1.66 2.3 0 1.4-1.11 2.5-2.5 2.5s-2.51-1.1-2.51-2.5c0-1.1.7-2 1.66-2.3l.33-.1v-.4-2.8c0-1.7 1.33-3 3-3z"/></g><path d="m12 8.77c-.84 0-1.66.341-2.254.937-.599.593-.942 1.403-.945 2.253 0 .85.337 1.67.933 2.26a.6001.6001 0 0 0 0 0c.594.6 1.424.94 2.264.94s1.67-.34 2.26-.94c.6-.59.94-1.41.94-2.26 0-.84-.34-1.66-.95-2.253-.588-.596-1.408-.937-2.248-.937z"/></g></svg>