<svg height="92" viewBox="0 0 24 24" width="92" xmlns="http://www.w3.org/2000/svg"><g transform="matrix(0 -1 -1 0 129.7464 -52.84)"><path d="m-64.85 116.2a.6001.6001 0 0 0 -.6.6v2a.6001.6001 0 0 0 .6.6c.48 0 .9.4.9.9v2.4c-1.18.6-2 1.8-2 3.2 0 2 1.64 3.6 3.6 3.6 1.97 0 3.6-1.6 3.6-3.6 0-1.4-.83-2.6-2-3.2v-2.4c0-2.3-1.86-4.1-4.1-4.1z"/><path d="m-67.35 106c-2 0-3.6 1.7-3.6 3.6 0 1.4.83 2.6 2 3.2v2.5c0 2.2 1.84 4.1 4.1 4.1a.6001.6001 0 0 0 .6-.6v-2a.6001.6001 0 0 0 -.6-.6c-.49 0-.9-.4-.9-.9v-2.5c1.17-.6 2-1.8 2-3.2 0-1.9-1.61-3.6-3.6-3.6z"/><path d="m-57.35 106c-1.99 0-3.6 1.7-3.6 3.6 0 1.4.83 2.6 2 3.2v2.5c0 .5-.41.9-.9.9h-4.35a.6001.6001 0 0 0 -.6.6v2a.6001.6001 0 0 0 .6.6h4.35c2.26 0 4.1-1.9 4.1-4.1v-2.5c1.17-.6 2-1.8 2-3.2 0-1.9-1.6-3.6-3.6-3.6z"/><path d="m-69.84 116.2c-2.24 0-4.1 1.8-4.1 4.1v2.5c-1.17.5-1.99 1.7-1.99 3.1 0 2 1.64 3.6 3.61 3.6 1.96 0 3.6-1.6 3.6-3.6 0-1.4-.83-2.6-2-3.2v-2.4c0-.5.41-.9.9-.9h4.51a.6001.6001 0 0 0 .6-.6v-2a.6001.6001 0 0 0 -.6-.6z"/></g><path d="m15.2 12c0-.84-.4-1.65-1-2.24-.5-.64-1.3-.96-2.2-.96s-1.7.32-2.2.96c-.6.59-1 1.4-1 2.24s.4 1.65 1 2.24c.5.64 1.3.96 2.2.96s1.7-.32 2.2-.96c.6-.59 1-1.4 1-2.24z"/></svg>