<svg enable-background="new 0 0 595.3 841.9" viewBox="0 0 595.3 841.9" xmlns="http://www.w3.org/2000/svg"><path d="m81.3 336.5v66.8h70.4v-66.8h38.3v174h-38.3v-75.1h-70.4v75.1h-38.3v-174z"/><path d="m298.7 336.5c11.2 0 21.6 1.8 31.3 5.4s18 8.9 25.1 16.1 12.6 16.1 16.6 26.8 6 23.3 6 37.8c0 12.7-1.6 24.4-4.9 35.1s-8.2 20-14.7 27.8c-6.6 7.8-14.8 13.9-24.6 18.4s-21.4 6.7-34.7 6.7h-75.1v-174h75zm-2.7 141.8c5.5 0 10.9-.9 16.1-2.7s9.8-4.8 13.9-8.9 7.3-9.5 9.7-16.2 3.7-14.8 3.7-24.4c0-8.8-.9-16.7-2.6-23.8s-4.5-13.1-8.4-18.2c-3.9-5-9.1-8.9-15.5-11.6s-14.3-4-23.8-4h-27.3v109.7h34.2z"/></svg>