<svg height="92" viewBox="0 0 24 24" width="92" xmlns="http://www.w3.org/2000/svg"><path d="m20.146484 1.0097656c-1.4 0-2.5.85-3 2h-2.699218c-2.2 0-4 1.79-4 4v1.1328125c-.318983-.0791386-.6491986-.1328125-1.0000004-.1328125h-2.6015625c-.5-1.15-1.6-2-3-2-2 0-3.49999998 1.59-3.49999998 3.5 0 1.9100004 1.49999998 3.5000004 3.49999998 3.5000004 1.4 0 2.5-.85 3-2h2.1289063c-.1052558.320293-.1738282.653579-.1738282.992187.0000001.84.3394532 1.669672.9394532 2.263672.207702.209814.4510466.375363.7070316.517578v2.197266c0 .55-.5000004 1-1.0000004 1h-2.6015625c-.5-1.15-1.6-2-3-2-2 0-3.49999998 1.59-3.49999998 3.5s1.49999998 3.509765 3.49999998 3.509765c1.4 0 2.4-.850234 3-1.990234h2.6015625c2.3000004 0 4.0000004-1.81 4.0000004-4v-1.130859c.321238.083483.653436.140625 1 .140625h2.699218c.5 1.15 1.6 2 3 2 1.9 0 3.5-1.56 3.5-3.5 0-1.93-1.6-3.5-3.5-3.5-1.4 0-2.5.85-3 2h-2.136718c.109859-.325031.179687-.66351.179687-1.009766 0-.84-.339547-1.660047-.935547-2.2480469-.235006-.2417431-.513216-.4275009-.80664-.5800781v-2.1621094c0-.55.5-1 1-1h2.699218c.5 1.15 1.6 2 3 2 1.9 0 3.5-1.57 3.5-3.5 0-1.94-1.6-3.5-3.5-3.5zm0 1c1.3 0 2.5 1.12 2.5 2.5 0 1.37-1.2 2.5-2.5 2.5-1.1 0-2.000781-.7001562-2.300781-1.6601562l-.099609-.3398438h-3.298828c-1.1 0-2 .89-2 2v1.8378906c-.14827-.0214976-.296512-.0449218-.447266-.0449218-.045545 0-.089424.0117318-.134766.0136718-.132077-.0996872-.272787-.1867008-.417968-.2695312v-1.5371094c0-1.65 1.4-3 3-3h3.298828l.099609-.3398437c.3-.96 1.200781-1.6601563 2.300781-1.6601563zm-16.3007809 5c1.1 0 2.0007813.7001563 2.3007813 1.6601563l.0996094.3398437h3.2011718c.375 0 .7179684.0695313 1.0273434.1953125-.266657.145777-.5191993.318287-.7343746.5371094-.0847589.0833462-.1524062.1811609-.2265625.2734375-.022765-.000879-.0432439-.005859-.0664063-.005859h-3.2011718l-.0996094.339843c-.3.97-1.2007813 1.660157-2.3007813 1.660157-1.4 0-2.5-1.11-2.5-2.5000004 0-1.39 1.1-2.5 2.5-2.5zm16.3007809 5.0000004c1.3 0 2.5 1.13 2.5 2.5 0 1.38-1.2 2.5-2.5 2.5-1.1 0-2.000781-.700157-2.300781-1.660157l-.099609-.339843h-3.298828c-.346307 0-.674537-.069316-.976563-.19336.284053-.150228.553837-.330813.783203-.5625.075007-.074755.132461-.162637.199219-.24414h3.292969l.099609-.339844c.3-.96 1.200781-1.660156 2.300781-1.660156zm-8.699218 3.134765c.181736.031709.36598.054688.552734.054688.018544-.000066.036184-.005471.054688-.00586.125749.094729.256012.180137.392578.259766v1.546875c0 1.67-1.3 3-3.0000004 3h-2.8007812-.4003906l-.0996094.330078c-.3.96-1.2007813 1.660156-2.3007813 1.660156-1.4 0-2.5-1.119765-2.5-2.509765s1.1-2.5 2.5-2.5c1.1 0 2.0007813.700156 2.3007813 1.660156l.0996094.339844h3.2011718c1.1000004 0 2.0000004-.89 2.0000004-2z" fill-opacity=".5"/><g stroke="#000" stroke-linecap="round" stroke-width="3"><path d="m3 3 18 18"/><path d="m21 3-18 18"/></g></svg>