<svg enable-background="new 0 0 841.9 595.3" height="609.4" viewBox="0 0 609.4 609.4" width="609.4" xmlns="http://www.w3.org/2000/svg"><path d="m153.7 16.9c-38.7-.46-84 14.77-85.74 69.91v463.89l37.04 41.7 390.9-65.7c25.5-4.6 46-36.5 46-70.8v-378.13l-358.5-58.8c-4-.67-22-1.97-25.9-1.98-1.3-.05-2.5-.08-3.8-.09zm119.8 107.2c4.6 0 9.2.2 13.8.8v.1c32.7 3.8 56.4 19.2 72 45.9 15.3 26.2 22.7 63.7 22.7 113.1 0 45.2-5.6 80.7-16.6 106.7-11.2 26.5-28.3 43.9-52 52.1 2.5 12.2 6.1 20.4 10.7 24.7 2.8 2.3 6.6 3.9 11.2 4.4h.3.7 5.2c2 0 3 .5 6.8 0v36l-16.3 2.3c-4.8.5-9.4.7-13.8.7-14.3 0-25.8-3.3-34.7-10.4-11.5-9.2-19.9-27.1-25.3-53.4-25-5.3-44.7-21.2-58.2-48-13.5-27-20.7-66.9-20.7-118.7 0-55.9 9.7-97.2 28.4-123.4 16.1-22.1 38-32.9 65.8-32.9zm150.9 19.4 30.7 3.4v55.3l33.1 2.6v34.7l-33.1-1.7v126.9c0 10.9 2.5 18.1 5.1 21.4 0 2.8 5.1 4.3 7.6 4.3h2.6c7.6-.5 15.3-2.5 23-6.3v31.6c-15.4 6.4-28.1 10-43.4 11.2 0 .3-2.6.3-5.2.3-12.7 0-20.4-3.6-28-10.7-7.7-8.4-12.8-22-12.8-40.4v-140.5l-13.8-.8v-37.2l21.5 1.5zm-139.9 22.9c-12 0-21.2 6.9-27.6 20.9-6.8 15.2-10.2 46.6-10.2 94.4 0 45.9 3.4 78.6 10.2 97.8 6.4 18.3 16.1 27.3 28.9 27.3h1.5c12.8-.8 22.2-9.7 28.9-26.3 6.4-16.6 9.4-49 9.4-97.5 0-43.6-3-73.5-9.4-90-6.4-16.6-16.1-25.5-28.9-26.6z" transform="matrix(1.0000101 0 0 1.0000101 .1154 -.0959)"/></svg>