<svg enable-background="new 0 0 841.9 595.3" viewBox="0 0 841.9 595.3" xmlns="http://www.w3.org/2000/svg"><path d="m654.1 317.5c-14.9-9.9-37.2-2.5-44.6 12.4l-62 111.6-34.7-34.7c-12.4-12.4-34.7-12.4-47.1 0s-12.4 34.7 0 47.1l67 67c7.4 7.4 14.9 9.9 22.3 9.9h5c9.9-2.5 19.8-7.4 24.8-17.4l81.9-148.8c9.7-17.4 4.8-37.2-12.6-47.1z"/><path d="m326.7 471.3h-148.8v-109.2l94.3-94.3c-5-14.9-7.4-29.8-7.4-44.6 0-81.9 67-148.8 148.8-148.8s148.8 67 148.8 148.8-67 148.8-148.8 148.8h-37.2v49.6h-49.6zm-99.2-49.6h49.6v-49.6h49.6v-49.6h86.8c54.6 0 99.2-44.6 99.2-99.2s-44.6-99.3-99.2-99.3-99.2 44.6-99.2 99.2c0 14.9 2.5 27.3 9.9 39.7l7.4 14.9-101.6 101.7v42.2zm186-223.3c14.9 0 24.8 9.9 24.8 24.8s-9.9 24.8-24.8 24.8-24.8-9.9-24.8-24.8 12.4-24.8 24.8-24.8m0-24.8c-27.3 0-49.6 22.3-49.6 49.6s22.3 49.6 49.6 49.6 49.6-22.3 49.6-49.6-19.8-49.6-49.6-49.6z"/></svg>